<svg xmlns="http://www.w3.org/2000/svg" xmlns:xlink="http://www.w3.org/1999/xlink" width="248" zoomAndPan="magnify" viewBox="0 0 186 54" height="72" preserveAspectRatio="xMidYMid meet" version="1.0"><defs><g/><clipPath id="id1"><path d="M 4 4 L 59 4 L 59 52 L 4 52 Z M 4 4 " clip-rule="nonzero"/></clipPath><clipPath id="id2"><path d="M 1.695312 30.089844 L 28.222656 -0.230469 L 58.539062 26.300781 L 32.011719 56.617188 Z M 1.695312 30.089844 " clip-rule="nonzero"/></clipPath><clipPath id="id3"><path d="M 1.695312 30.089844 L 28.222656 -0.230469 L 58.539062 26.300781 L 32.011719 56.617188 Z M 1.695312 30.089844 " clip-rule="nonzero"/></clipPath></defs><g clip-path="url(#id1)"><g clip-path="url(#id2)"><g clip-path="url(#id3)"><path fill="#f04848" d="M 46.808594 16.058594 C 50.445312 19.238281 54.082031 22.421875 57.714844 25.601562 C 58.371094 26.175781 58.394531 26.515625 57.816406 27.171875 L 47.910156 38.496094 L 44.738281 35.722656 C 46.691406 34.472656 47.351562 32.789062 46.707031 30.714844 C 46.585938 30.332031 46.410156 29.980469 46.175781 29.65625 C 45.945312 29.332031 45.667969 29.050781 45.347656 28.8125 C 45.027344 28.574219 44.675781 28.394531 44.296875 28.265625 C 43.917969 28.140625 43.527344 28.074219 43.128906 28.070312 C 41.242188 28.035156 39.878906 28.949219 39.074219 30.785156 L 35.90625 28.011719 C 35.933594 27.972656 35.960938 27.933594 35.988281 27.898438 L 36.578125 27.226562 C 37.554688 26.109375 38.535156 24.992188 39.519531 23.878906 L 39.535156 23.859375 C 39.671875 23.746094 39.761719 23.601562 39.808594 23.429688 C 39.851562 23.257812 39.839844 23.089844 39.773438 22.925781 C 39.695312 22.765625 39.574219 22.644531 39.417969 22.5625 C 39.257812 22.476562 39.089844 22.445312 38.910156 22.46875 C 38.59375 22.472656 38.289062 22.421875 37.992188 22.308594 C 37.699219 22.195312 37.4375 22.035156 37.203125 21.820312 C 36.972656 21.605469 36.789062 21.359375 36.652344 21.074219 C 36.515625 20.789062 36.4375 20.488281 36.417969 20.171875 C 36.394531 19.855469 36.425781 19.546875 36.519531 19.238281 C 36.613281 18.933594 36.757812 18.65625 36.953125 18.40625 C 37.152344 18.152344 37.386719 17.945312 37.660156 17.78125 C 37.933594 17.617188 38.226562 17.507812 38.539062 17.453125 C 38.875 17.394531 39.210938 17.402344 39.542969 17.476562 C 39.875 17.554688 40.179688 17.695312 40.453125 17.898438 C 40.722656 18.097656 40.945312 18.347656 41.117188 18.640625 C 41.285156 18.9375 41.390625 19.253906 41.433594 19.59375 C 41.421875 19.777344 41.46875 19.941406 41.574219 20.089844 C 41.675781 20.238281 41.816406 20.339844 41.992188 20.390625 C 42.171875 20.429688 42.351562 20.410156 42.519531 20.335938 C 42.691406 20.261719 42.828125 20.144531 42.925781 19.984375 C 43.828125 18.9375 44.738281 17.898438 45.664062 16.839844 L 46.535156 15.84375 L 46.5625 15.863281 C 46.652344 15.925781 46.730469 15.992188 46.808594 16.058594 Z M 45.296875 32.859375 C 45.351562 32.683594 45.390625 32.507812 45.40625 32.324219 C 45.425781 32.144531 45.425781 31.960938 45.402344 31.78125 C 45.382812 31.601562 45.339844 31.425781 45.28125 31.253906 C 45.222656 31.082031 45.144531 30.917969 45.050781 30.765625 C 44.957031 30.609375 44.84375 30.46875 44.71875 30.335938 C 44.59375 30.207031 44.453125 30.09375 44.304688 29.992188 C 44.152344 29.894531 43.992188 29.8125 43.820312 29.75 C 43.652344 29.683594 43.476562 29.640625 43.296875 29.613281 C 43.117188 29.585938 42.9375 29.578125 42.757812 29.59375 C 42.574219 29.605469 42.394531 29.636719 42.21875 29.6875 C 42.046875 29.742188 41.878906 29.808594 41.714844 29.898438 C 41.554688 29.984375 41.40625 30.089844 41.265625 30.210938 C 41.128906 30.332031 41.003906 30.464844 40.894531 30.609375 C 40.78125 30.757812 40.6875 30.914062 40.613281 31.078125 C 40.535156 31.246094 40.476562 31.417969 40.4375 31.597656 C 40.398438 31.777344 40.378906 31.957031 40.378906 32.140625 C 40.375 32.320312 40.367188 32.871094 39.878906 33 C 39.566406 33.070312 39.285156 33.007812 39.027344 32.820312 C 38.050781 31.984375 37.070312 31.117188 36.125 30.277344 L 35.0625 29.339844 C 35.007812 29.292969 34.949219 29.25 34.886719 29.210938 L 32.09375 32.40625 C 34.152344 33.566406 34.960938 34.910156 34.707031 36.746094 C 34.652344 37.152344 34.539062 37.539062 34.367188 37.910156 C 34.195312 38.285156 33.976562 38.625 33.703125 38.929688 C 33.429688 39.238281 33.117188 39.496094 32.765625 39.710938 C 32.417969 39.921875 32.042969 40.078125 31.648438 40.179688 C 29.875 40.636719 28.417969 39.992188 27.078125 38.148438 L 24.269531 41.355469 L 35.402344 51.09375 C 36.085938 51.691406 36.382812 51.667969 36.992188 50.972656 L 46.871094 39.683594 C 46.851562 39.652344 46.828125 39.621094 46.800781 39.59375 L 46.074219 38.960938 C 44.992188 38.011719 43.914062 37.0625 42.824219 36.125 C 42.664062 36.03125 42.550781 35.898438 42.472656 35.730469 C 42.398438 35.5625 42.378906 35.386719 42.414062 35.203125 C 42.464844 35.019531 42.570312 34.875 42.726562 34.761719 C 42.878906 34.648438 43.050781 34.597656 43.238281 34.601562 C 43.726562 34.546875 44.15625 34.363281 44.53125 34.042969 C 44.90625 33.726562 45.160156 33.332031 45.296875 32.859375 Z M 18.238281 35.828125 C 18.109375 35.6875 17.960938 35.570312 17.796875 35.472656 C 17.667969 35.390625 17.546875 35.300781 17.429688 35.199219 L 17.390625 35.167969 C 17.1875 34.984375 16.933594 34.757812 16.941406 34.511719 C 16.988281 34.269531 17.105469 34.070312 17.292969 33.914062 C 17.332031 33.867188 17.371094 33.820312 17.410156 33.777344 C 17.476562 33.710938 17.558594 33.660156 17.648438 33.632812 C 17.675781 33.621094 17.703125 33.609375 17.730469 33.597656 L 21.117188 31.835938 L 19.796875 29.230469 C 18.484375 30.347656 17.128906 30.527344 15.761719 29.765625 C 15.199219 29.476562 14.769531 29.050781 14.472656 28.496094 C 14.171875 27.9375 14.058594 27.339844 14.128906 26.707031 C 14.261719 25.050781 15.203125 23.988281 16.929688 23.550781 L 15.613281 20.957031 C 15.5625 20.980469 15.523438 20.996094 15.484375 21.015625 L 14.027344 21.773438 C 11.101562 23.289062 8.179688 24.808594 5.261719 26.324219 C 4.800781 26.566406 4.746094 26.75 4.988281 27.230469 C 6.558594 30.335938 8.128906 33.441406 9.703125 36.546875 L 9.992188 37.121094 C 10.046875 37.230469 10.105469 37.335938 10.167969 37.449219 L 10.195312 37.503906 L 13.582031 35.746094 C 13.625 35.722656 13.667969 35.699219 13.714844 35.675781 C 14.003906 35.515625 14.363281 35.316406 14.761719 35.578125 C 15.160156 35.84375 15.089844 36.234375 15.03125 36.546875 C 15.023438 36.609375 15.011719 36.671875 15.003906 36.730469 C 14.949219 37.140625 15.027344 37.519531 15.234375 37.875 C 15.441406 38.226562 15.734375 38.480469 16.117188 38.628906 C 16.496094 38.78125 16.886719 38.796875 17.28125 38.683594 C 17.679688 38.570312 18 38.34375 18.25 38.011719 C 18.5 37.6875 18.625 37.320312 18.621094 36.914062 C 18.621094 36.503906 18.492188 36.144531 18.238281 35.828125 Z M 32.714844 5.167969 C 29.472656 8.871094 26.234375 12.570312 22.996094 16.273438 C 22.929688 16.351562 22.867188 16.433594 22.800781 16.519531 L 22.78125 16.546875 L 23.753906 17.398438 C 24.804688 18.316406 25.800781 19.191406 26.824219 20.070312 C 27.148438 20.277344 27.28125 20.570312 27.21875 20.957031 C 27.175781 21.136719 27.082031 21.285156 26.9375 21.402344 C 26.792969 21.519531 26.628906 21.578125 26.445312 21.582031 C 26.125 21.621094 25.820312 21.714844 25.535156 21.871094 C 25.246094 22.03125 25 22.234375 24.792969 22.484375 C 24.582031 22.738281 24.429688 23.019531 24.332031 23.332031 C 24.230469 23.640625 24.195312 23.957031 24.21875 24.28125 C 24.242188 24.605469 24.324219 24.914062 24.464844 25.203125 C 24.605469 25.492188 24.792969 25.746094 25.03125 25.964844 C 25.273438 26.179688 25.542969 26.34375 25.84375 26.457031 C 26.148438 26.566406 26.460938 26.617188 26.785156 26.609375 C 27.109375 26.601562 27.421875 26.535156 27.722656 26.40625 C 28.019531 26.277344 28.285156 26.097656 28.519531 25.867188 C 28.75 25.632812 28.929688 25.367188 29.058594 25.070312 C 29.1875 24.769531 29.253906 24.457031 29.261719 24.128906 C 29.222656 23.941406 29.25 23.761719 29.339844 23.589844 C 29.429688 23.417969 29.5625 23.296875 29.742188 23.21875 C 29.921875 23.144531 30.101562 23.132812 30.285156 23.1875 C 30.46875 23.242188 30.613281 23.347656 30.71875 23.507812 C 31.6875 24.355469 32.65625 25.203125 33.625 26.050781 L 34.730469 27.015625 L 37.554688 23.789062 C 35.734375 23.015625 34.84375 21.660156 34.90625 19.765625 C 34.917969 19.359375 34.988281 18.964844 35.125 18.578125 C 35.261719 18.195312 35.453125 17.839844 35.695312 17.511719 C 35.941406 17.1875 36.234375 16.902344 36.566406 16.667969 C 36.898438 16.429688 37.257812 16.25 37.648438 16.128906 C 39.710938 15.476562 41.367188 16.121094 42.574219 18.046875 L 45.398438 14.820312 L 42.4375 12.226562 C 39.707031 9.839844 36.980469 7.453125 34.253906 5.066406 C 33.605469 4.503906 33.277344 4.527344 32.714844 5.167969 Z M 32.714844 5.167969 " fill-opacity="1" fill-rule="nonzero"/></g></g></g><g fill="#ffffff" fill-opacity="1"><g transform="translate(67.634555, 42.58021)"><g><path d="M 2.78125 -27.84375 L 15.953125 -27.84375 C 19.003906 -27.84375 21.707031 -27.269531 24.0625 -26.125 C 26.425781 -24.988281 28.253906 -23.375 29.546875 -21.28125 C 30.847656 -19.1875 31.5 -16.734375 31.5 -13.921875 C 31.5 -11.109375 30.847656 -8.65625 29.546875 -6.5625 C 28.253906 -4.46875 26.425781 -2.847656 24.0625 -1.703125 C 21.707031 -0.566406 19.003906 0 15.953125 0 L 2.78125 0 Z M 15.640625 -6.28125 C 18.023438 -6.28125 19.9375 -6.957031 21.375 -8.3125 C 22.820312 -9.664062 23.546875 -11.535156 23.546875 -13.921875 C 23.546875 -16.304688 22.820312 -18.175781 21.375 -19.53125 C 19.9375 -20.882812 18.023438 -21.5625 15.640625 -21.5625 L 10.65625 -21.5625 L 10.65625 -6.28125 Z M 15.640625 -6.28125 "/></g></g></g><g fill="#ffffff" fill-opacity="1"><g transform="translate(100.496435, 42.58021)"><g><path d="M 25.140625 -6.09375 L 25.140625 0 L 2.78125 0 L 2.78125 -27.84375 L 24.625 -27.84375 L 24.625 -21.765625 L 10.578125 -21.765625 L 10.578125 -17.0625 L 22.953125 -17.0625 L 22.953125 -11.171875 L 10.578125 -11.171875 L 10.578125 -6.09375 Z M 25.140625 -6.09375 "/></g></g></g><g fill="#ffffff" fill-opacity="1"><g transform="translate(127.23152, 42.58021)"><g><path d="M 31.03125 -27.84375 L 19.09375 0 L 11.34375 0 L -0.5625 -27.84375 L 7.953125 -27.84375 L 15.515625 -9.703125 L 23.234375 -27.84375 Z M 31.03125 -27.84375 "/></g></g></g><g fill="#f04848" fill-opacity="1"><g transform="translate(86.730594, 51.014813)"><g><path d="M 5.984375 -2.953125 L 4.265625 -2.953125 L 4.265625 0 L 1.109375 0 L 1.109375 -11.140625 L 6.203125 -11.140625 C 7.210938 -11.140625 8.085938 -10.96875 8.828125 -10.625 C 9.566406 -10.289062 10.140625 -9.8125 10.546875 -9.1875 C 10.953125 -8.570312 11.15625 -7.847656 11.15625 -7.015625 C 11.15625 -6.210938 10.960938 -5.507812 10.578125 -4.90625 C 10.203125 -4.3125 9.664062 -3.84375 8.96875 -3.5 L 11.375 0 L 8 0 Z M 7.96875 -7.015625 C 7.96875 -7.535156 7.800781 -7.9375 7.46875 -8.21875 C 7.144531 -8.507812 6.660156 -8.65625 6.015625 -8.65625 L 4.265625 -8.65625 L 4.265625 -5.390625 L 6.015625 -5.390625 C 6.660156 -5.390625 7.144531 -5.53125 7.46875 -5.8125 C 7.800781 -6.09375 7.96875 -6.492188 7.96875 -7.015625 Z M 7.96875 -7.015625 "/></g></g></g><g fill="#f04848" fill-opacity="1"><g transform="translate(98.505109, 51.014813)"><g><path d="M 10.046875 -2.4375 L 10.046875 0 L 1.109375 0 L 1.109375 -11.140625 L 9.84375 -11.140625 L 9.84375 -8.703125 L 4.234375 -8.703125 L 4.234375 -6.828125 L 9.171875 -6.828125 L 9.171875 -4.46875 L 4.234375 -4.46875 L 4.234375 -2.4375 Z M 10.046875 -2.4375 "/></g></g></g><g fill="#f04848" fill-opacity="1"><g transform="translate(109.197642, 51.014813)"><g><path d="M 5.03125 0.21875 C 4.125 0.21875 3.242188 0.109375 2.390625 -0.109375 C 1.546875 -0.335938 0.859375 -0.632812 0.328125 -1 L 1.375 -3.328125 C 1.863281 -2.992188 2.4375 -2.726562 3.09375 -2.53125 C 3.757812 -2.332031 4.410156 -2.234375 5.046875 -2.234375 C 6.253906 -2.234375 6.859375 -2.535156 6.859375 -3.140625 C 6.859375 -3.453125 6.6875 -3.6875 6.34375 -3.84375 C 6 -4 5.441406 -4.160156 4.671875 -4.328125 C 3.835938 -4.503906 3.140625 -4.695312 2.578125 -4.90625 C 2.015625 -5.113281 1.53125 -5.441406 1.125 -5.890625 C 0.726562 -6.347656 0.53125 -6.96875 0.53125 -7.75 C 0.53125 -8.425781 0.710938 -9.035156 1.078125 -9.578125 C 1.453125 -10.128906 2.003906 -10.5625 2.734375 -10.875 C 3.472656 -11.195312 4.378906 -11.359375 5.453125 -11.359375 C 6.179688 -11.359375 6.898438 -11.273438 7.609375 -11.109375 C 8.328125 -10.941406 8.957031 -10.703125 9.5 -10.390625 L 8.53125 -8.046875 C 7.46875 -8.617188 6.4375 -8.90625 5.4375 -8.90625 C 4.8125 -8.90625 4.351562 -8.8125 4.0625 -8.625 C 3.78125 -8.4375 3.640625 -8.195312 3.640625 -7.90625 C 3.640625 -7.601562 3.804688 -7.378906 4.140625 -7.234375 C 4.484375 -7.085938 5.035156 -6.9375 5.796875 -6.78125 C 6.640625 -6.59375 7.335938 -6.394531 7.890625 -6.1875 C 8.453125 -5.988281 8.9375 -5.660156 9.34375 -5.203125 C 9.75 -4.753906 9.953125 -4.144531 9.953125 -3.375 C 9.953125 -2.707031 9.765625 -2.101562 9.390625 -1.5625 C 9.023438 -1.019531 8.46875 -0.585938 7.71875 -0.265625 C 6.976562 0.0546875 6.082031 0.21875 5.03125 0.21875 Z M 5.03125 0.21875 "/></g></g></g><g fill="#f04848" fill-opacity="1"><g transform="translate(119.492379, 51.014813)"><g><path d="M 1.109375 -11.140625 L 4.265625 -11.140625 L 4.265625 0 L 1.109375 0 Z M 1.109375 -11.140625 "/></g></g></g><g fill="#f04848" fill-opacity="1"><g transform="translate(124.886382, 51.014813)"><g><path d="M 1.109375 -11.140625 L 4.265625 -11.140625 L 4.265625 -2.5 L 9.578125 -2.5 L 9.578125 0 L 1.109375 0 Z M 1.109375 -11.140625 "/></g></g></g><g fill="#f04848" fill-opacity="1"><g transform="translate(134.592397, 51.014813)"><g><path d="M 1.109375 -11.140625 L 4.265625 -11.140625 L 4.265625 0 L 1.109375 0 Z M 1.109375 -11.140625 "/></g></g></g><g fill="#f04848" fill-opacity="1"><g transform="translate(139.9864, 51.014813)"><g><path d="M 10.046875 -2.4375 L 10.046875 0 L 1.109375 0 L 1.109375 -11.140625 L 9.84375 -11.140625 L 9.84375 -8.703125 L 4.234375 -8.703125 L 4.234375 -6.828125 L 9.171875 -6.828125 L 9.171875 -4.46875 L 4.234375 -4.46875 L 4.234375 -2.4375 Z M 10.046875 -2.4375 "/></g></g></g><g fill="#f04848" fill-opacity="1"><g transform="translate(150.678934, 51.014813)"><g><path d="M 11.703125 -11.140625 L 11.703125 0 L 9.109375 0 L 4.203125 -5.9375 L 4.203125 0 L 1.109375 0 L 1.109375 -11.140625 L 3.703125 -11.140625 L 8.625 -5.203125 L 8.625 -11.140625 Z M 11.703125 -11.140625 "/></g></g></g><g fill="#f04848" fill-opacity="1"><g transform="translate(163.503601, 51.014813)"><g><path d="M 3.484375 -8.640625 L 0.0625 -8.640625 L 0.0625 -11.140625 L 10.03125 -11.140625 L 10.03125 -8.640625 L 6.640625 -8.640625 L 6.640625 0 L 3.484375 0 Z M 3.484375 -8.640625 "/></g></g></g><g fill="#f04848" fill-opacity="1"><g transform="translate(173.607402, 51.014813)"><g><path d="M 10.046875 -2.4375 L 10.046875 0 L 1.109375 0 L 1.109375 -11.140625 L 9.84375 -11.140625 L 9.84375 -8.703125 L 4.234375 -8.703125 L 4.234375 -6.828125 L 9.171875 -6.828125 L 9.171875 -4.46875 L 4.234375 -4.46875 L 4.234375 -2.4375 Z M 10.046875 -2.4375 "/></g></g></g></svg>